<?xml version="1.0" standalone="no"?>
<!DOCTYPE svg PUBLIC "-//W3C//DTD SVG 20010904//EN"
 "http://www.w3.org/TR/2001/REC-SVG-20010904/DTD/svg10.dtd">
<svg version="1.0" xmlns="http://www.w3.org/2000/svg"
 width="200.000000pt" height="200.000000pt" viewBox="0 0 200.000000 200.000000"
 preserveAspectRatio="xMidYMid meet">

<g transform="translate(0.000000,200.000000) scale(0.100000,-0.100000)"
fill="#000000" stroke="none">
<path d="M327 1540 c-117 -30 -174 -110 -133 -188 21 -40 69 -82 191 -165 61
-41 120 -86 132 -99 33 -35 39 -78 15 -108 -18 -22 -28 -25 -91 -25 -86 0
-110 18 -118 89 l-6 46 -62 0 c-70 0 -75 -4 -75 -72 0 -100 161 -161 345 -129
119 21 185 70 185 138 0 69 -33 106 -198 221 -152 106 -172 125 -172 167 0 42
19 57 80 63 88 8 140 -34 140 -113 0 -24 2 -25 64 -25 58 0 64 2 70 23 20 74
-11 131 -86 162 -50 21 -222 30 -281 15z"/>
<path d="M1250 1200 l0 -320 85 0 84 0 3 158 3 157 110 -157 110 -157 88 -1
c68 0 86 3 80 13 -4 6 -58 81 -120 165 -62 85 -113 158 -113 163 0 5 47 72
105 149 58 77 105 142 105 145 0 3 -35 5 -78 5 l-78 0 -100 -139 c-54 -77
-102 -140 -106 -140 -5 -1 -8 62 -8 139 l0 140 -85 0 -85 0 0 -320z"/>
<path d="M888 1169 c-22 -12 -23 -38 -3 -66 15 -21 14 -23 -29 -41 -45 -21
-62 -47 -51 -81 13 -43 124 -58 202 -26 31 12 46 14 62 6 11 -6 30 -11 43 -10
22 0 22 1 3 9 -38 15 -49 36 -31 62 9 12 16 27 16 33 0 5 -9 -5 -20 -23 l-20
-33 -50 42 c-28 23 -50 45 -50 49 0 4 14 13 30 20 45 19 35 70 -14 70 -19 -1
-19 -1 -3 -11 25 -15 21 -48 -8 -61 -21 -9 -28 -8 -45 7 -25 22 -26 41 -2 54
13 8 14 10 2 10 -8 0 -23 -4 -32 -10z m142 -189 c0 -12 -58 -30 -94 -30 -46 0
-96 34 -96 65 0 18 9 29 37 44 l38 19 57 -46 c32 -25 58 -48 58 -52z"/>
<path d="M897 843 c-11 -10 -8 -41 4 -49 6 -3 18 1 27 9 13 13 13 19 2 31 -14
17 -23 20 -33 9z"/>
<path d="M1577 843 c-11 -10 -8 -41 4 -49 6 -3 18 1 27 9 13 13 13 19 2 31
-14 17 -23 20 -33 9z"/>
<path d="M123 794 c-33 -34 -26 -69 27 -137 44 -54 51 -99 17 -105 -12 -3 -19
5 -23 27 -5 21 -12 31 -25 31 -24 0 -25 -36 -3 -68 32 -47 124 -16 124 42 0
13 -16 46 -35 72 -19 27 -42 59 -51 71 -20 28 -12 53 16 53 15 0 22 -8 27 -30
6 -34 28 -40 38 -10 11 35 -28 80 -70 80 -9 0 -27 -12 -42 -26z"/>
<path d="M1670 794 c0 -15 -8 -33 -17 -41 -13 -10 -15 -16 -5 -19 8 -4 12 -31
12 -84 0 -102 11 -132 47 -128 28 3 46 28 20 28 -21 0 -27 22 -27 102 0 61 2
70 20 75 11 3 20 12 20 19 0 8 -9 14 -20 14 -16 0 -20 7 -20 30 0 20 -5 30
-15 30 -10 0 -15 -10 -15 -26z"/>
<path d="M280 665 c0 -137 1 -145 20 -145 17 0 19 8 22 68 l3 67 25 -65 c20
-50 31 -66 48 -68 12 -2 22 -1 22 2 0 3 -13 39 -30 81 l-30 75 25 56 c30 68
30 74 6 74 -14 0 -26 -17 -44 -62 l-26 -63 -1 63 c0 55 -2 62 -20 62 -19 0
-20 -7 -20 -145z"/>
<path d="M530 682 c0 -144 8 -162 67 -162 55 0 63 22 63 163 0 120 -1 127 -20
127 -18 0 -20 -8 -22 -127 -3 -120 -4 -128 -23 -128 -19 0 -20 8 -23 128 -2
119 -4 127 -22 127 -19 0 -20 -7 -20 -128z"/>
<path d="M710 640 c0 -113 1 -120 20 -120 19 0 20 7 20 94 0 70 4 97 15 106
27 23 35 0 35 -101 0 -92 1 -99 20 -99 19 0 20 7 20 109 0 125 -9 143 -61 124
-17 -7 -31 -7 -35 -2 -3 5 -12 9 -20 9 -11 0 -14 -22 -14 -120z"/>
<path d="M890 640 c0 -113 1 -120 20 -120 19 0 20 7 20 120 0 113 -1 120 -20
120 -19 0 -20 -7 -20 -120z"/>
<path d="M960 756 c0 -2 11 -53 25 -114 14 -61 25 -113 25 -116 0 -3 9 -6 19
-6 16 0 23 16 41 98 12 53 24 107 27 120 4 17 1 22 -15 22 -15 0 -21 -11 -31
-57 -6 -31 -11 -68 -11 -82 -1 -40 -16 -5 -24 54 -10 73 -15 85 -37 85 -10 0
-19 -2 -19 -4z"/>
<path d="M1144 739 c-15 -17 -19 -36 -19 -99 0 -89 17 -120 66 -120 28 0 59
30 59 57 0 22 -37 15 -43 -8 -9 -32 -32 -17 -35 24 -3 35 -2 36 35 39 36 3 38
5 41 41 6 76 -58 116 -104 66z m64 -47 c3 -27 0 -32 -17 -32 -16 0 -21 6 -21
28 0 53 33 56 38 4z"/>
<path d="M1290 640 c0 -113 1 -120 20 -120 18 0 20 8 22 102 2 70 7 103 16
106 7 2 12 -6 12 -22 0 -30 25 -36 32 -8 12 46 -30 80 -60 50 -9 -9 -12 -9
-12 0 0 7 -7 12 -15 12 -12 0 -15 -20 -15 -120z"/>
<path d="M1438 749 c-30 -17 -23 -70 17 -120 19 -24 35 -52 35 -62 0 -27 -34
-17 -38 11 -5 33 -32 28 -32 -6 0 -34 16 -52 48 -52 73 0 82 52 22 131 -41 55
-45 72 -18 77 10 2 18 -7 22 -23 8 -30 29 -29 34 2 6 42 -48 67 -90 42z"/>
<path d="M1570 640 c0 -113 1 -120 20 -120 19 0 20 7 20 120 0 113 -1 120 -20
120 -19 0 -20 -7 -20 -120z"/>
<path d="M1760 753 c0 -5 12 -64 27 -131 l27 -124 -24 -18 c-20 -15 -22 -22
-13 -31 16 -16 61 13 68 44 3 12 14 66 25 119 10 53 22 108 26 122 5 21 3 26
-14 26 -25 0 -28 -9 -37 -94 -4 -37 -11 -64 -15 -59 -4 4 -13 41 -19 81 -11
60 -16 72 -32 72 -10 0 -19 -3 -19 -7z"/>
</g>
</svg>
